<svg width="91" height="15" viewBox="0 0 91 15" fill="none" xmlns="http://www.w3.org/2000/svg">
<path d="M3.91691 1.78359C3.28821 2.04634 2.80025 2.44045 2.45305 2.96594C2.11524 3.49143 1.94633 4.12483 1.94633 4.86614C1.94633 5.21334 1.97918 5.45732 2.04486 5.59807C2.11055 5.72944 2.14339 5.80451 2.14339 5.82328C1.63667 5.82328 1.25663 5.72006 1.00327 5.51362C0.759294 5.29779 0.637306 4.9459 0.637306 4.45795C0.637306 3.85739 0.881282 3.2756 1.36924 2.71258C1.86657 2.14017 2.49997 1.68037 3.26944 1.33317C4.0389 0.976592 4.80837 0.798301 5.57783 0.798301C5.7092 0.798301 5.89688 0.807685 6.14085 0.826453L5.24002 5.02097H7.30913L8.20996 0.826453H10.2368L7.99883 11.355H5.97195L7.09799 6.06257H5.02888L3.90284 11.355H1.87596L3.91691 1.78359ZM11.842 11.4394C11.1476 11.4394 10.6081 11.2611 10.2233 10.9046C9.83859 10.5386 9.64622 9.97088 9.64622 9.20142C9.64622 8.55394 9.7729 7.84078 10.0263 7.06193C10.2796 6.28308 10.6925 5.61215 11.2649 5.04912C11.8373 4.47672 12.5646 4.19051 13.4466 4.19051C14.4788 4.19051 14.9949 4.64093 14.9949 5.54177C14.9949 6.06726 14.8448 6.55052 14.5445 6.99155C14.2442 7.43259 13.8454 7.78917 13.3481 8.0613C12.8508 8.32404 12.3206 8.47418 11.7576 8.51172C11.7388 8.79323 11.7294 8.9809 11.7294 9.07474C11.7294 9.53454 11.8092 9.84889 11.9687 10.0178C12.1282 10.1773 12.3863 10.2571 12.7428 10.2571C13.2496 10.2571 13.6812 10.1398 14.0378 9.9052C14.4038 9.6706 14.8026 9.31402 15.2342 8.83545H15.7128C14.6712 10.5714 13.3809 11.4394 11.842 11.4394ZM11.8702 7.83609C12.2174 7.81732 12.5458 7.69533 12.8555 7.47012C13.1745 7.24491 13.4279 6.95871 13.6155 6.61151C13.8126 6.26432 13.9111 5.89835 13.9111 5.51362C13.9111 5.12889 13.7938 4.93652 13.5592 4.93652C13.2214 4.93652 12.8883 5.23211 12.5599 5.82328C12.2408 6.41445 12.0109 7.08539 11.8702 7.83609ZM16.9203 11.4394C16.3855 11.4394 15.9397 11.2565 15.5831 10.8905C15.2266 10.5245 15.0483 9.95212 15.0483 9.17327C15.0483 8.47887 15.1843 7.75163 15.4565 6.99155C15.738 6.22209 16.1509 5.57461 16.6951 5.04912C17.2488 4.51425 17.9056 4.24682 18.6657 4.24682C19.0504 4.24682 19.3366 4.3125 19.5243 4.44387C19.712 4.57525 19.8058 4.74885 19.8058 4.96467V5.0632L19.9606 4.31719H21.9875L20.9741 9.10289C20.9366 9.24364 20.9178 9.39378 20.9178 9.55331C20.9178 9.95681 21.1102 10.1586 21.4949 10.1586C21.7576 10.1586 21.9828 10.0366 22.1705 9.79259C22.3676 9.54862 22.5224 9.22957 22.635 8.83545H23.2262C22.879 9.84889 22.4473 10.5386 21.9312 10.9046C21.4245 11.2611 20.9131 11.4394 20.397 11.4394C20.0029 11.4394 19.6838 11.3315 19.4398 11.1157C19.2053 10.8905 19.0645 10.5667 19.0176 10.1445C18.7455 10.5292 18.4405 10.8436 18.1027 11.0875C17.7742 11.3221 17.3801 11.4394 16.9203 11.4394ZM17.8352 10.0741C18.0698 10.0741 18.2997 9.96619 18.5249 9.75037C18.7595 9.52516 18.9191 9.22019 19.0035 8.83545L19.6791 5.65437C19.6791 5.53239 19.6322 5.41509 19.5384 5.30248C19.4445 5.1805 19.2991 5.1195 19.102 5.1195C18.7267 5.1195 18.3889 5.34002 18.0886 5.78105C17.7883 6.2127 17.5537 6.73819 17.3848 7.35752C17.2159 7.96746 17.1315 8.50702 17.1315 8.97621C17.1315 9.44539 17.1971 9.74567 17.3285 9.87705C17.4693 10.0084 17.6382 10.0741 17.8352 10.0741ZM23.5973 4.31719H25.6242L25.4412 5.18988C25.7603 4.90837 26.0465 4.69254 26.2998 4.5424C26.5626 4.39226 26.8441 4.31719 27.1444 4.31719C27.4446 4.31719 27.6792 4.42042 27.8481 4.62686C28.0264 4.8333 28.1156 5.08197 28.1156 5.37286C28.1156 5.64499 28.0264 5.88427 27.8481 6.09072C27.6698 6.29716 27.4212 6.40038 27.1021 6.40038C26.8957 6.40038 26.7549 6.35346 26.6799 6.25962C26.6142 6.1564 26.5626 6.01096 26.525 5.82328C26.4969 5.70129 26.4687 5.61215 26.4406 5.55584C26.4124 5.49954 26.3608 5.47139 26.2857 5.47139C26.0887 5.47139 25.9198 5.51362 25.779 5.59807C25.6477 5.67314 25.4741 5.80921 25.2582 6.00626L24.1322 11.355H22.1053L23.5973 4.31719ZM30.2829 3.55711C29.9732 3.55711 29.7105 3.4492 29.4946 3.23338C29.2788 3.01755 29.1709 2.75481 29.1709 2.44514C29.1709 2.13548 29.2788 1.87274 29.4946 1.65691C29.7105 1.4317 29.9732 1.3191 30.2829 1.3191C30.5925 1.3191 30.8553 1.4317 31.0711 1.65691C31.2963 1.87274 31.4089 2.13548 31.4089 2.44514C31.4089 2.75481 31.2963 3.01755 31.0711 3.23338C30.8553 3.4492 30.5925 3.55711 30.2829 3.55711ZM29.3257 11.4394C28.8753 11.4394 28.5094 11.2987 28.2278 11.0172C27.9557 10.7357 27.8197 10.3134 27.8197 9.75037C27.8197 9.51577 27.8572 9.2108 27.9323 8.83545L28.8894 4.31719H30.9163L29.9028 9.10289C29.8653 9.24364 29.8465 9.39378 29.8465 9.55331C29.8465 9.74098 29.8888 9.87705 29.9732 9.9615C30.0671 10.0366 30.2172 10.0741 30.4236 10.0741C30.6958 10.0741 30.9491 9.9615 31.1837 9.73629C31.4183 9.5017 31.5872 9.20142 31.6904 8.83545H32.2816C31.9344 9.84889 31.4887 10.5386 30.9444 10.9046C30.4002 11.2611 29.8606 11.4394 29.3257 11.4394ZM36.5268 11.4394C36.0295 11.4394 35.6682 11.2893 35.443 10.989C35.2178 10.6887 35.1052 10.3087 35.1052 9.84889C35.1052 9.65184 35.1286 9.43132 35.1756 9.18734C35.2225 8.93398 35.2694 8.69001 35.3163 8.45541C35.3726 8.22082 35.4102 8.07068 35.4289 8.00499C35.504 7.67656 35.5744 7.35283 35.6401 7.03378C35.7057 6.71473 35.7386 6.45668 35.7386 6.25962C35.7386 5.78105 35.5697 5.54177 35.2319 5.54177C34.9879 5.54177 34.7721 5.66376 34.5844 5.90773C34.3967 6.14233 34.2466 6.45199 34.134 6.83672L33.1768 11.355H31.15L32.642 4.31719H34.6688L34.514 5.04912C34.9832 4.52364 35.5321 4.26089 36.1609 4.26089C36.6394 4.26089 37.0195 4.39226 37.301 4.65501C37.5825 4.91775 37.7232 5.31656 37.7232 5.85143C37.7232 6.12356 37.6904 6.42853 37.6247 6.76634C37.559 7.09477 37.4652 7.49827 37.3432 7.97684C37.2681 8.26774 37.1978 8.55394 37.1321 8.83545C37.0758 9.10758 37.0476 9.32341 37.0476 9.48293C37.0476 9.6706 37.0898 9.81605 37.1743 9.91927C37.2588 10.0225 37.4042 10.0741 37.6106 10.0741C37.8359 10.0741 37.9907 10.046 38.0751 9.98965C38.0188 10.4682 37.8452 10.8295 37.5543 11.0735C37.2728 11.3174 36.9303 11.4394 36.5268 11.4394ZM41.328 14.2686C40.643 14.2686 40.0894 14.0903 39.6671 13.7338C39.2542 13.3866 39.0478 12.9268 39.0478 12.3543C39.0478 11.9978 39.1322 11.6693 39.3011 11.3691C39.47 11.0688 39.6999 10.8342 39.9908 10.6653C40.2817 10.487 40.6008 10.3978 40.948 10.3978C41.3046 10.3978 41.5908 10.487 41.8066 10.6653C42.0318 10.8436 42.1444 11.0782 42.1444 11.3691C42.1444 11.5943 42.0928 11.7726 41.9896 11.9039C41.9051 11.7913 41.7878 11.7022 41.6377 11.6365C41.4969 11.5708 41.3468 11.538 41.1873 11.538C40.9058 11.538 40.6759 11.6318 40.4976 11.8195C40.3193 12.0071 40.2301 12.2511 40.2301 12.5514C40.2301 12.8517 40.3146 13.0957 40.4835 13.2833C40.6618 13.471 40.8823 13.5648 41.145 13.5648C41.4735 13.5648 41.755 13.4194 41.9896 13.1285C42.2242 12.8376 42.4025 12.406 42.5244 11.8335L43.2282 8.72285H43.1719C42.9186 9.07943 42.6089 9.35156 42.2429 9.53923C41.8864 9.72691 41.4922 9.82074 41.0606 9.82074C40.5163 9.82074 40.0378 9.6753 39.6249 9.3844C39.212 9.09351 38.8929 8.68062 38.6677 8.14575C38.4519 7.60149 38.344 6.97279 38.344 6.25962C38.344 5.22741 38.5692 4.28904 39.0196 3.44451C39.47 2.59059 40.0894 1.91966 40.8776 1.4317C41.6658 0.943749 42.5338 0.699773 43.4816 0.699773C44.2792 0.699773 44.9079 0.873371 45.3677 1.22057C45.8369 1.56777 46.0715 2.04164 46.0715 2.6422C46.0715 3.0457 45.973 3.36944 45.7759 3.61342C45.5788 3.85739 45.3208 3.97938 45.0017 3.97938C44.8235 3.97938 44.6545 3.94185 44.495 3.86678C44.3449 3.79171 44.2182 3.68379 44.115 3.54304C44.2839 3.43043 44.4246 3.25214 44.5373 3.00817C44.6592 2.75481 44.7202 2.50145 44.7202 2.24809C44.7202 1.96657 44.6358 1.75075 44.4669 1.60061C44.3074 1.44109 44.0775 1.36132 43.7772 1.36132C43.2329 1.36132 42.7074 1.6053 42.2007 2.09325C41.694 2.57182 41.2858 3.20053 40.9761 3.97938C40.6665 4.75823 40.5116 5.57461 40.5116 6.42853C40.5116 7.13231 40.6242 7.67187 40.8495 8.04722C41.0747 8.41319 41.3984 8.59617 41.8207 8.59617C42.3274 8.59617 42.7731 8.32873 43.1578 7.79386C43.552 7.25899 43.8663 6.48014 44.1009 5.45732L45.7618 5.47139L44.7343 10.2008C44.434 11.599 44.0071 12.6265 43.4534 13.2833C42.9092 13.9402 42.2007 14.2686 41.328 14.2686ZM47.6075 11.4394C47.1571 11.4394 46.7911 11.2987 46.5096 11.0172C46.2375 10.7357 46.1014 10.3134 46.1014 9.75037C46.1014 9.51577 46.1389 9.2108 46.214 8.83545L47.1711 4.31719H49.198L48.1846 9.10289C48.1564 9.24364 48.1424 9.37502 48.1424 9.49701C48.1424 9.88174 48.2831 10.0741 48.5646 10.0741C48.8274 10.0741 49.0526 9.96619 49.2403 9.75037C49.4279 9.52516 49.5781 9.22019 49.6907 8.83545L50.6478 4.31719H52.6747L51.6613 9.10289C51.6237 9.24364 51.6049 9.39378 51.6049 9.55331C51.6049 9.74098 51.6472 9.87705 51.7316 9.9615C51.8255 10.0366 51.9756 10.0741 52.182 10.0741C52.4448 10.0741 52.67 9.9615 52.8577 9.73629C53.0547 9.51108 53.2096 9.2108 53.3222 8.83545H53.9133C53.5661 9.84889 53.1345 10.5386 52.6184 10.9046C52.1117 11.2611 51.6003 11.4394 51.0842 11.4394C50.6807 11.4394 50.3569 11.3268 50.1129 11.1016C49.8783 10.8764 49.7376 10.5433 49.6907 10.1023C49.3716 10.6184 49.0338 10.9702 48.6772 11.1579C48.33 11.3456 47.9735 11.4394 47.6075 11.4394ZM54.2777 4.31719H56.3045L56.1216 5.18988C56.4406 4.90837 56.7268 4.69254 56.9802 4.5424C57.2429 4.39226 57.5244 4.31719 57.8247 4.31719C58.125 4.31719 58.3596 4.42042 58.5285 4.62686C58.7068 4.8333 58.7959 5.08197 58.7959 5.37286C58.7959 5.64499 58.7068 5.88427 58.5285 6.09072C58.3502 6.29716 58.1015 6.40038 57.7825 6.40038C57.576 6.40038 57.4353 6.35346 57.3602 6.25962C57.2945 6.1564 57.2429 6.01096 57.2054 5.82328C57.1772 5.70129 57.1491 5.61215 57.1209 5.55584C57.0928 5.49954 57.0412 5.47139 56.9661 5.47139C56.769 5.47139 56.6001 5.51362 56.4594 5.59807C56.328 5.67314 56.1544 5.80921 55.9386 6.00626L54.8125 11.355H52.7856L54.2777 4.31719ZM60.0061 11.4394C59.5557 11.4394 59.1897 11.2987 58.9082 11.0172C58.6361 10.7357 58.5 10.3134 58.5 9.75037C58.5 9.51577 58.5375 9.2108 58.6126 8.83545L59.5697 4.31719H61.5966L60.5832 9.10289C60.555 9.21549 60.541 9.33279 60.541 9.45478C60.541 9.86766 60.6817 10.0741 60.9632 10.0741C61.226 10.0741 61.4512 9.96619 61.6389 9.75037C61.8265 9.52516 61.9767 9.22019 62.0893 8.83545L63.0464 4.31719H65.0733L64.0598 9.10289C64.0223 9.24364 64.0035 9.39378 64.0035 9.55331C64.0035 9.74098 64.0458 9.87705 64.1302 9.9615C64.2241 10.0366 64.3742 10.0741 64.5806 10.0741C64.7308 10.0741 64.8387 10.0647 64.9044 10.046C64.9795 10.0178 65.0264 9.99903 65.0451 9.98965C65.0076 10.4682 64.8434 10.8295 64.5525 11.0735C64.2616 11.3174 63.905 11.4394 63.4828 11.4394C63.0886 11.4394 62.7696 11.3221 62.5256 11.0875C62.291 10.853 62.1503 10.5245 62.1033 10.1023C61.7843 10.6184 61.4465 10.9702 61.0899 11.1579C60.7427 11.3456 60.3814 11.4394 60.0061 11.4394ZM66.6214 11.4113C66.3117 11.4113 66.049 11.3034 65.8332 11.0875C65.6173 10.8717 65.5094 10.609 65.5094 10.2993C65.5094 9.98965 65.6173 9.72691 65.8332 9.51108C66.049 9.28587 66.3117 9.17327 66.6214 9.17327C66.931 9.17327 67.1938 9.28587 67.4096 9.51108C67.6348 9.72691 67.7474 9.98965 67.7474 10.2993C67.7474 10.609 67.6348 10.8717 67.4096 11.0875C67.1938 11.3034 66.931 11.4113 66.6214 11.4113ZM70.7835 11.4394C70.0891 11.4394 69.5495 11.2611 69.1648 10.9046C68.78 10.5386 68.5877 9.97088 68.5877 9.20142C68.5877 8.55394 68.7144 7.84078 68.9677 7.06193C69.2305 6.28308 69.6433 5.61215 70.2064 5.04912C70.7788 4.47672 71.5013 4.19051 72.374 4.19051C72.937 4.19051 73.3358 4.3125 73.5704 4.55648C73.8144 4.80046 73.9364 5.11012 73.9364 5.48547C73.9364 5.8139 73.866 6.06726 73.7253 6.24555C73.5845 6.42384 73.4062 6.51298 73.1904 6.51298C73.0309 6.51298 72.8667 6.45668 72.6977 6.34408C72.8103 6.03441 72.8667 5.75759 72.8667 5.51362C72.8667 5.33533 72.8338 5.19457 72.7681 5.09135C72.7024 4.98813 72.6039 4.93652 72.4725 4.93652C72.191 4.93652 71.9095 5.16642 71.628 5.62622C71.3465 6.08602 71.1166 6.64436 70.9383 7.30122C70.76 7.95808 70.6709 8.54925 70.6709 9.07474C70.6709 9.53454 70.7506 9.84889 70.9101 10.0178C71.0697 10.1773 71.3277 10.2571 71.6843 10.2571C72.191 10.2571 72.6227 10.1398 72.9793 9.9052C73.3452 9.6706 73.744 9.31402 74.1757 8.83545H74.6542C73.6127 10.5714 72.3224 11.4394 70.7835 11.4394ZM76.2277 11.4113C75.5333 11.4113 74.9844 11.233 74.5809 10.8764C74.1774 10.5198 73.9756 9.95681 73.9756 9.18734C73.9756 8.54925 74.107 7.84078 74.3698 7.06193C74.6325 6.28308 75.0548 5.61215 75.6366 5.04912C76.2184 4.47672 76.9503 4.19051 77.8324 4.19051C79.0335 4.19051 79.634 4.94121 79.634 6.44261V6.45668C79.6622 6.46607 79.7138 6.47076 79.7889 6.47076C80.0985 6.47076 80.4551 6.391 80.8586 6.23147C81.2621 6.06257 81.6281 5.86082 81.9565 5.62622L82.0832 6.00626C81.8111 6.29716 81.4545 6.54583 81.0134 6.75227C80.5818 6.94933 80.1079 7.09008 79.5918 7.17454C79.5167 8.02845 79.3244 8.77446 79.0147 9.41255C78.705 10.0506 78.3062 10.5433 77.8183 10.8905C77.3303 11.2377 76.8001 11.4113 76.2277 11.4113ZM76.7908 10.1445C77.016 10.1445 77.2412 10.0178 77.4664 9.76444C77.6916 9.5017 77.8887 9.14981 78.0576 8.70877C78.2265 8.25835 78.3485 7.76102 78.4235 7.21676C78.1702 7.16046 78.0435 6.9634 78.0435 6.62559C78.0435 6.24086 78.1889 5.9875 78.4798 5.86551C78.4611 5.55585 78.4141 5.34471 78.3391 5.23211C78.264 5.11012 78.1326 5.04912 77.945 5.04912C77.6353 5.04912 77.335 5.27433 77.0441 5.72475C76.7532 6.17517 76.5186 6.71473 76.3403 7.34344C76.1621 7.97215 76.0729 8.52579 76.0729 9.00436C76.0729 9.45478 76.1245 9.75975 76.2277 9.91927C76.331 10.0694 76.5186 10.1445 76.7908 10.1445ZM88.6769 11.4394C88.1796 11.4394 87.8183 11.2893 87.5931 10.989C87.3679 10.6887 87.2553 10.3087 87.2553 9.84889C87.2553 9.65184 87.2788 9.43132 87.3257 9.18734C87.3726 8.93398 87.4195 8.69001 87.4664 8.45541C87.5227 8.22082 87.5603 8.07068 87.579 8.00499C87.6541 7.67656 87.7245 7.35283 87.7902 7.03378C87.8558 6.71473 87.8887 6.45668 87.8887 6.25962C87.8887 5.78105 87.7198 5.54177 87.382 5.54177C87.138 5.54177 86.9222 5.66376 86.7345 5.90773C86.5468 6.14233 86.3967 6.45199 86.2841 6.83672L85.3269 11.355H83.3001L84.3276 6.49891C84.3557 6.3863 84.3698 6.26901 84.3698 6.14702C84.3698 5.73414 84.229 5.52769 83.9475 5.52769C83.6848 5.52769 83.4549 5.64968 83.2578 5.89366C83.0702 6.12825 82.92 6.44261 82.8074 6.83672L81.8503 11.355H79.8234L81.3154 4.31719H83.3423L83.1875 5.04912C83.666 4.51425 84.2384 4.24682 84.9047 4.24682C85.7304 4.24682 86.2137 4.65032 86.3545 5.45732C86.8706 4.6597 87.5227 4.26089 88.311 4.26089C88.7895 4.26089 89.1696 4.39226 89.4511 4.65501C89.7326 4.91775 89.8733 5.31656 89.8733 5.85143C89.8733 6.12356 89.8405 6.42853 89.7748 6.76634C89.7091 7.09477 89.6153 7.49827 89.4933 7.97684C89.4182 8.26774 89.3479 8.55394 89.2822 8.83545C89.2259 9.10758 89.1977 9.32341 89.1977 9.48293C89.1977 9.6706 89.2399 9.81605 89.3244 9.91927C89.4089 10.0225 89.5543 10.0741 89.7607 10.0741C89.986 10.0741 90.1408 10.046 90.2252 9.98965C90.1689 10.4682 89.9953 10.8295 89.7044 11.0735C89.4229 11.3174 89.0804 11.4394 88.6769 11.4394Z" fill="#6B2300"/>
</svg>
