<svg width="249" height="76" viewBox="0 0 249 76" fill="none" xmlns="http://www.w3.org/2000/svg">
<path fill-rule="evenodd" clip-rule="evenodd" d="M36.4766 21.4742C30.671 22.7191 28.5509 29.6047 32.7138 33.695C33.9404 34.9002 35.1685 35.4671 38.0915 36.1774C43.5831 37.5119 45.7863 39.2562 46.1906 42.5894C46.3433 43.8487 47.9329 40.1158 48.4244 37.3437C49.3337 32.2152 46.4854 25.2364 42.5295 22.9002C42.3108 22.7711 41.9037 22.5276 41.6248 22.3591C40.1699 21.4803 38.1041 21.1252 36.4766 21.4742ZM30.4169 33.151C27.5888 36.9486 28.9713 44.1152 33.1245 47.1863C39.1802 51.6644 47.0465 47.8071 44.607 41.5559C43.741 39.3367 42.3578 38.5016 37.628 37.3423C35.0694 36.7152 34.0887 36.332 32.9244 35.5042C32.1504 34.954 30.6264 33.3778 30.6264 33.1275C30.6264 33.0221 30.5025 33.0361 30.4169 33.151ZM30.7824 48.3576C28.3872 49.3157 28.3197 52.6818 30.6706 53.9342C33.9488 55.6807 38.5996 54.1842 41.8076 50.3508C42.2401 49.834 42.25 49.8399 41.3851 50.0994C40.1197 50.4789 38.551 50.5346 37.1397 50.2502C35.7387 49.9679 34.9561 49.6547 32.7293 48.4849C32.1251 48.1675 31.3796 48.1188 30.7824 48.3576Z" fill="#6B2300"/>
<path d="M60.415 30.3828C59.2578 30.8664 58.3597 31.5918 57.7206 32.559C57.0988 33.5262 56.7879 34.6921 56.7879 36.0566C56.7879 36.6956 56.8484 37.1447 56.9693 37.4038C57.0902 37.6456 57.1506 37.7837 57.1506 37.8183C56.218 37.8183 55.5185 37.6283 55.0521 37.2483C54.6031 36.8511 54.3785 36.2034 54.3785 35.3052C54.3785 34.1998 54.8276 33.129 55.7257 32.0927C56.6411 31.0391 57.807 30.1928 59.2233 29.5537C60.6395 28.8974 62.0558 28.5692 63.4721 28.5692C63.7139 28.5692 64.0594 28.5865 64.5084 28.6211L62.8503 36.3415H66.6588L68.3169 28.6211H72.0476L67.9282 48H64.1975L66.2701 38.2587H62.4617L60.3891 48H56.6584L60.415 30.3828ZM75.002 48.1554C73.7239 48.1554 72.7308 47.8273 72.0227 47.171C71.3145 46.4974 70.9604 45.4524 70.9604 44.0361C70.9604 42.8444 71.1936 41.5317 71.66 40.0982C72.1263 38.6646 72.8863 37.4297 73.9398 36.3934C74.9934 35.3398 76.332 34.813 77.9555 34.813C79.8554 34.813 80.8054 35.642 80.8054 37.3001C80.8054 38.2673 80.529 39.1568 79.9763 39.9686C79.4236 40.7804 78.6896 41.4367 77.7742 41.9376C76.8588 42.4212 75.8829 42.6976 74.8466 42.7666C74.8121 43.2848 74.7948 43.6302 74.7948 43.803C74.7948 44.6493 74.9416 45.2279 75.2352 45.5388C75.5288 45.8324 76.0038 45.9792 76.6601 45.9792C77.5928 45.9792 78.3873 45.7633 79.0436 45.3315C79.7172 44.8997 80.4513 44.2434 81.2458 43.3625H82.1267C80.2095 46.5578 77.8346 48.1554 75.002 48.1554ZM75.0539 41.5231C75.6929 41.4885 76.2974 41.264 76.8674 40.8495C77.4546 40.435 77.921 39.9082 78.2664 39.2691C78.6291 38.6301 78.8105 37.9565 78.8105 37.2483C78.8105 36.5402 78.5946 36.1861 78.1628 36.1861C77.541 36.1861 76.9279 36.7302 76.3233 37.8183C75.7361 38.9064 75.3129 40.1413 75.0539 41.5231ZM84.3493 48.1554C83.3648 48.1554 82.5444 47.8186 81.888 47.145C81.2317 46.4714 80.9035 45.4179 80.9035 43.9843C80.9035 42.7062 81.154 41.3676 81.6549 39.9686C82.173 38.5523 82.933 37.3606 83.9347 36.3934C84.9538 35.4089 86.1628 34.9166 87.5618 34.9166C88.27 34.9166 88.7967 35.0375 89.1422 35.2793C89.4876 35.5211 89.6603 35.8407 89.6603 36.2379V36.4193L89.9453 35.0462H93.676L91.8107 43.8548C91.7416 44.1138 91.707 44.3902 91.707 44.6838C91.707 45.4265 92.0611 45.7978 92.7693 45.7978C93.2529 45.7978 93.6674 45.5733 94.0128 45.1242C94.3755 44.6752 94.6605 44.0879 94.8678 43.3625H95.9559C95.3168 45.2279 94.5223 46.4974 93.5724 47.171C92.6397 47.8273 91.6984 48.1554 90.7485 48.1554C90.023 48.1554 89.4358 47.9568 88.9867 47.5596C88.5549 47.145 88.2959 46.5492 88.2095 45.7719C87.7086 46.4801 87.1473 47.0587 86.5255 47.5078C85.921 47.9395 85.1956 48.1554 84.3493 48.1554ZM86.0333 45.6424C86.465 45.6424 86.8882 45.4438 87.3027 45.0465C87.7345 44.632 88.0281 44.0707 88.1836 43.3625L89.4272 37.5074C89.4272 37.2829 89.3408 37.067 89.1681 36.8597C88.9954 36.6352 88.7277 36.5229 88.3649 36.5229C87.6741 36.5229 87.0523 36.9288 86.4996 37.7406C85.9469 38.5351 85.5151 39.5023 85.2042 40.6422C84.8933 41.7649 84.7379 42.758 84.7379 43.6216C84.7379 44.4852 84.8588 45.0379 85.1006 45.2797C85.3597 45.5215 85.6705 45.6424 86.0333 45.6424ZM96.639 35.0462H100.37L100.033 36.6524C100.62 36.1343 101.147 35.737 101.613 35.4607C102.097 35.1843 102.615 35.0462 103.168 35.0462C103.72 35.0462 104.152 35.2361 104.463 35.6161C104.791 35.9961 104.955 36.4538 104.955 36.9892C104.955 37.4901 104.791 37.9305 104.463 38.3105C104.135 38.6905 103.677 38.8805 103.09 38.8805C102.71 38.8805 102.451 38.7941 102.313 38.6214C102.192 38.4314 102.097 38.1637 102.028 37.8183C101.976 37.5937 101.924 37.4297 101.872 37.326C101.821 37.2224 101.726 37.1706 101.587 37.1706C101.225 37.1706 100.914 37.2483 100.655 37.4038C100.413 37.5419 100.093 37.7924 99.6961 38.1551L97.6235 48H93.8928L96.639 35.0462ZM108.945 33.6471C108.375 33.6471 107.891 33.4485 107.494 33.0513C107.096 32.654 106.898 32.1704 106.898 31.6004C106.898 31.0305 107.096 30.5469 107.494 30.1496C107.891 29.7351 108.375 29.5278 108.945 29.5278C109.515 29.5278 109.998 29.7351 110.395 30.1496C110.81 30.5469 111.017 31.0305 111.017 31.6004C111.017 32.1704 110.81 32.654 110.395 33.0513C109.998 33.4485 109.515 33.6471 108.945 33.6471ZM107.183 48.1554C106.354 48.1554 105.68 47.8964 105.162 47.3782C104.661 46.8601 104.411 46.0828 104.411 45.0465C104.411 44.6147 104.48 44.0534 104.618 43.3625L106.38 35.0462H110.11L108.245 43.8548C108.176 44.1138 108.141 44.3902 108.141 44.6838C108.141 45.0293 108.219 45.2797 108.375 45.4351C108.547 45.5733 108.824 45.6424 109.204 45.6424C109.705 45.6424 110.171 45.4351 110.603 45.0206C111.034 44.5888 111.345 44.0361 111.535 43.3625H112.623C111.984 45.2279 111.164 46.4974 110.162 47.171C109.16 47.8273 108.167 48.1554 107.183 48.1554ZM120.437 48.1554C119.522 48.1554 118.857 47.8791 118.442 47.3264C118.028 46.7737 117.821 46.0742 117.821 45.2279C117.821 44.8652 117.864 44.4593 117.95 44.0102C118.036 43.5439 118.123 43.0948 118.209 42.663C118.313 42.2312 118.382 41.9549 118.416 41.834C118.555 41.2295 118.684 40.6336 118.805 40.0463C118.926 39.4591 118.986 38.9841 118.986 38.6214C118.986 37.7406 118.676 37.3001 118.054 37.3001C117.605 37.3001 117.207 37.5247 116.862 37.9737C116.517 38.4055 116.24 38.9755 116.033 39.6836L114.271 48H110.541L113.287 35.0462H117.017L116.732 36.3934C117.596 35.4261 118.606 34.9425 119.764 34.9425C120.645 34.9425 121.344 35.1843 121.862 35.6679C122.38 36.1516 122.639 36.8856 122.639 37.8701C122.639 38.371 122.579 38.9323 122.458 39.5541C122.337 40.1586 122.164 40.9013 121.94 41.7822C121.802 42.3176 121.672 42.8444 121.551 43.3625C121.448 43.8634 121.396 44.2607 121.396 44.5543C121.396 44.8997 121.474 45.1674 121.629 45.3574C121.784 45.5474 122.052 45.6424 122.432 45.6424C122.847 45.6424 123.132 45.5906 123.287 45.487C123.183 46.3678 122.864 47.0328 122.329 47.4818C121.81 47.9309 121.18 48.1554 120.437 48.1554ZM129.274 53.3629C128.014 53.3629 126.995 53.0347 126.217 52.3784C125.457 51.7393 125.077 50.893 125.077 49.8394C125.077 49.1831 125.233 48.5786 125.544 48.0259C125.855 47.4732 126.278 47.0414 126.813 46.7305C127.349 46.4024 127.936 46.2383 128.575 46.2383C129.231 46.2383 129.758 46.4024 130.155 46.7305C130.57 47.0587 130.777 47.4905 130.777 48.0259C130.777 48.4404 130.682 48.7686 130.492 49.0104C130.337 48.8031 130.121 48.6391 129.844 48.5182C129.585 48.3973 129.309 48.3368 129.015 48.3368C128.497 48.3368 128.074 48.5095 127.746 48.855C127.418 49.2004 127.254 49.6495 127.254 50.2022C127.254 50.7549 127.409 51.2039 127.72 51.5494C128.048 51.8948 128.454 52.0675 128.938 52.0675C129.542 52.0675 130.06 51.7998 130.492 51.2644C130.924 50.7289 131.252 49.9344 131.477 48.8809L132.772 43.1553H132.668C132.202 43.8116 131.632 44.3125 130.958 44.6579C130.302 45.0033 129.577 45.1761 128.782 45.1761C127.78 45.1761 126.9 44.9083 126.14 44.3729C125.38 43.8375 124.792 43.0775 124.378 42.093C123.981 41.0913 123.782 39.9341 123.782 38.6214C123.782 36.7215 124.196 34.9943 125.026 33.4399C125.855 31.8681 126.995 30.6332 128.445 29.7351C129.896 28.837 131.494 28.3879 133.238 28.3879C134.706 28.3879 135.864 28.7074 136.71 29.3465C137.573 29.9855 138.005 30.8577 138.005 31.9631C138.005 32.7058 137.824 33.3017 137.461 33.7508C137.099 34.1998 136.624 34.4244 136.036 34.4244C135.708 34.4244 135.397 34.3553 135.104 34.2171C134.827 34.0789 134.594 33.8803 134.404 33.6212C134.715 33.414 134.974 33.0858 135.181 32.6367C135.406 32.1704 135.518 31.7041 135.518 31.2377C135.518 30.7196 135.363 30.3223 135.052 30.046C134.758 29.7524 134.335 29.6055 133.782 29.6055C132.781 29.6055 131.813 30.0546 130.881 30.9527C129.948 31.8336 129.197 32.9908 128.627 34.4244C128.057 35.8579 127.772 37.3606 127.772 38.9323C127.772 40.2277 127.979 41.2208 128.394 41.9117C128.808 42.5853 129.404 42.9221 130.181 42.9221C131.114 42.9221 131.934 42.4298 132.642 41.4454C133.368 40.4609 133.946 39.0273 134.378 37.1447L137.435 37.1706L135.544 45.8756C134.991 48.4491 134.205 50.3403 133.186 51.5494C132.185 52.7584 130.881 53.3629 129.274 53.3629ZM140.832 48.1554C140.003 48.1554 139.33 47.8964 138.812 47.3782C138.311 46.8601 138.06 46.0828 138.06 45.0465C138.06 44.6147 138.129 44.0534 138.268 43.3625L140.029 35.0462H143.76L141.895 43.8548C141.843 44.1138 141.817 44.3557 141.817 44.5802C141.817 45.2883 142.076 45.6424 142.594 45.6424C143.078 45.6424 143.492 45.4438 143.838 45.0465C144.183 44.632 144.46 44.0707 144.667 43.3625L146.429 35.0462H150.159L148.294 43.8548C148.225 44.1138 148.19 44.3902 148.19 44.6838C148.19 45.0293 148.268 45.2797 148.423 45.4351C148.596 45.5733 148.872 45.6424 149.252 45.6424C149.736 45.6424 150.151 45.4351 150.496 45.0206C150.859 44.6061 151.144 44.0534 151.351 43.3625H152.439C151.8 45.2279 151.006 46.4974 150.056 47.171C149.123 47.8273 148.182 48.1554 147.232 48.1554C146.489 48.1554 145.893 47.9482 145.444 47.5337C145.012 47.1191 144.753 46.506 144.667 45.6942C144.08 46.6442 143.458 47.2919 142.801 47.6373C142.162 47.9827 141.506 48.1554 140.832 48.1554ZM153.11 35.0462H156.84L156.504 36.6524C157.091 36.1343 157.618 35.737 158.084 35.4607C158.568 35.1843 159.086 35.0462 159.638 35.0462C160.191 35.0462 160.623 35.2361 160.934 35.6161C161.262 35.9961 161.426 36.4538 161.426 36.9892C161.426 37.4901 161.262 37.9305 160.934 38.3105C160.606 38.6905 160.148 38.8805 159.561 38.8805C159.181 38.8805 158.922 38.7941 158.783 38.6214C158.663 38.4314 158.568 38.1637 158.498 37.8183C158.447 37.5937 158.395 37.4297 158.343 37.326C158.291 37.2224 158.196 37.1706 158.058 37.1706C157.695 37.1706 157.384 37.2483 157.125 37.4038C156.884 37.5419 156.564 37.7924 156.167 38.1551L154.094 48H150.363L153.11 35.0462ZM163.653 48.1554C162.824 48.1554 162.151 47.8964 161.633 47.3782C161.132 46.8601 160.881 46.0828 160.881 45.0465C160.881 44.6147 160.95 44.0534 161.089 43.3625L162.85 35.0462H166.581L164.716 43.8548C164.664 44.062 164.638 44.2779 164.638 44.5025C164.638 45.2624 164.897 45.6424 165.415 45.6424C165.899 45.6424 166.313 45.4438 166.659 45.0465C167.004 44.632 167.281 44.0707 167.488 43.3625L169.25 35.0462H172.98L171.115 43.8548C171.046 44.1138 171.011 44.3902 171.011 44.6838C171.011 45.0293 171.089 45.2797 171.244 45.4351C171.417 45.5733 171.693 45.6424 172.073 45.6424C172.35 45.6424 172.548 45.6251 172.669 45.5906C172.808 45.5388 172.894 45.5042 172.928 45.487C172.859 46.3678 172.557 47.0328 172.022 47.4818C171.486 47.9309 170.83 48.1554 170.053 48.1554C169.327 48.1554 168.74 47.9395 168.291 47.5078C167.859 47.076 167.6 46.4714 167.514 45.6942C166.926 46.6442 166.305 47.2919 165.648 47.6373C165.009 47.9827 164.344 48.1554 163.653 48.1554ZM175.83 48.1036C175.26 48.1036 174.776 47.905 174.379 47.5078C173.982 47.1105 173.783 46.6269 173.783 46.0569C173.783 45.487 173.982 45.0033 174.379 44.6061C174.776 44.1916 175.26 43.9843 175.83 43.9843C176.4 43.9843 176.883 44.1916 177.281 44.6061C177.695 45.0033 177.902 45.487 177.902 46.0569C177.902 46.6269 177.695 47.1105 177.281 47.5078C176.883 47.905 176.4 48.1036 175.83 48.1036ZM183.49 48.1554C182.212 48.1554 181.219 47.8273 180.511 47.171C179.803 46.4974 179.449 45.4524 179.449 44.0361C179.449 42.8444 179.682 41.5317 180.148 40.0982C180.632 38.6646 181.392 37.4297 182.428 36.3934C183.482 35.3398 184.812 34.813 186.418 34.813C187.454 34.813 188.188 35.0375 188.62 35.4866C189.069 35.9357 189.294 36.5056 189.294 37.1965C189.294 37.801 189.164 38.2673 188.905 38.5955C188.646 38.9237 188.318 39.0878 187.921 39.0878C187.627 39.0878 187.325 38.9841 187.014 38.7769C187.221 38.2069 187.325 37.6974 187.325 37.2483C187.325 36.9201 187.264 36.6611 187.143 36.4711C187.023 36.2811 186.841 36.1861 186.599 36.1861C186.081 36.1861 185.563 36.6093 185.045 37.4556C184.527 38.3019 184.104 39.3296 183.775 40.5386C183.447 41.7476 183.283 42.8357 183.283 43.803C183.283 44.6493 183.43 45.2279 183.724 45.5388C184.017 45.8324 184.492 45.9792 185.149 45.9792C186.081 45.9792 186.876 45.7633 187.532 45.3315C188.206 44.8997 188.94 44.2434 189.734 43.3625H190.615C188.698 46.5578 186.323 48.1554 183.49 48.1554ZM193.511 48.1036C192.233 48.1036 191.223 47.7755 190.48 47.1191C189.737 46.4628 189.366 45.4265 189.366 44.0102C189.366 42.8357 189.608 41.5317 190.091 40.0982C190.575 38.6646 191.352 37.4297 192.423 36.3934C193.494 35.3398 194.841 34.813 196.465 34.813C198.676 34.813 199.781 36.1947 199.781 38.9582V38.9841C199.833 39.0014 199.928 39.01 200.066 39.01C200.636 39.01 201.292 38.8632 202.035 38.5696C202.778 38.2587 203.451 37.8874 204.056 37.4556L204.289 38.1551C203.788 38.6905 203.132 39.1482 202.32 39.5282C201.525 39.8909 200.653 40.15 199.703 40.3054C199.565 41.8772 199.211 43.2503 198.641 44.4247C198.071 45.5992 197.337 46.506 196.439 47.145C195.541 47.7841 194.565 48.1036 193.511 48.1036ZM194.548 45.7719C194.962 45.7719 195.377 45.5388 195.791 45.0724C196.206 44.5888 196.568 43.9411 196.879 43.1294C197.19 42.3003 197.415 41.3849 197.553 40.3831C197.087 40.2795 196.853 39.9168 196.853 39.295C196.853 38.5869 197.121 38.1205 197.656 37.896C197.622 37.326 197.536 36.9374 197.397 36.7302C197.259 36.5056 197.017 36.3934 196.672 36.3934C196.102 36.3934 195.549 36.8079 195.014 37.6369C194.478 38.466 194.047 39.4591 193.719 40.6163C193.39 41.7735 193.226 42.7926 193.226 43.6734C193.226 44.5025 193.321 45.0638 193.511 45.3574C193.701 45.6338 194.047 45.7719 194.548 45.7719ZM216.425 48.1554C215.51 48.1554 214.845 47.8791 214.431 47.3264C214.016 46.7737 213.809 46.0742 213.809 45.2279C213.809 44.8652 213.852 44.4593 213.938 44.0102C214.025 43.5439 214.111 43.0948 214.197 42.663C214.301 42.2312 214.37 41.9549 214.405 41.834C214.543 41.2295 214.672 40.6336 214.793 40.0463C214.914 39.4591 214.975 38.9841 214.975 38.6214C214.975 37.7406 214.664 37.3001 214.042 37.3001C213.593 37.3001 213.196 37.5247 212.85 37.9737C212.505 38.4055 212.228 38.9755 212.021 39.6836L210.259 48H206.529L208.42 39.0618C208.472 38.8546 208.498 38.6387 208.498 38.4142C208.498 37.6542 208.239 37.2742 207.72 37.2742C207.237 37.2742 206.814 37.4988 206.451 37.9478C206.106 38.3796 205.829 38.9582 205.622 39.6836L203.86 48H200.129L202.876 35.0462H206.606L206.321 36.3934C207.202 35.4089 208.256 34.9166 209.482 34.9166C211.002 34.9166 211.892 35.6593 212.151 37.1447C213.101 35.6766 214.301 34.9425 215.752 34.9425C216.633 34.9425 217.332 35.1843 217.85 35.6679C218.368 36.1516 218.628 36.8856 218.628 37.8701C218.628 38.371 218.567 38.9323 218.446 39.5541C218.325 40.1586 218.153 40.9013 217.928 41.7822C217.79 42.3176 217.66 42.8444 217.539 43.3625C217.436 43.8634 217.384 44.2607 217.384 44.5543C217.384 44.8997 217.462 45.1674 217.617 45.3574C217.773 45.5474 218.04 45.6424 218.42 45.6424C218.835 45.6424 219.12 45.5906 219.275 45.487C219.172 46.3678 218.852 47.0328 218.317 47.4818C217.799 47.9309 217.168 48.1554 216.425 48.1554Z" fill="#6B2300"/>
</svg>
